<?xml version="1.0" encoding="UTF-8"?>
<svg fill="none" version="1.1" viewBox="0 0 542 94" xmlns="http://www.w3.org/2000/svg"><path d="m0.33337 1.3192h50.877v91.191h-50.877v-91.191z" fill="#fff"/><path d="m51.544 0.9858h-51.544v91.857h51.544v-91.857zm-0.6666 91.191h-50.211v-90.524h50.211v90.524z" fill="#E2001A"/><path d="m92.849 92.843h-46.603v-91.857h46.603v91.857z" fill="#E2001A"/><g clip-path="url(#a)"><g fill="#9C9D9F"><path d="m115.34 0.98653h55.54v16h-39.247v20.269h23.927v13.653h-23.927v26.225h39.247v15.879h-55.54v-92.027z"/><path d="m180.88 0.98653h62.794v15.819h-23.332v76.208h-16.24v-76.208h-23.222v-15.819z"/><path d="m253.67 0.98653h55.54v16h-39.246v20.269h23.926v13.653h-23.926v26.225h39.246v15.879h-55.54v-92.027z"/></g><path d="m335.56 17.046v24.781h13.045c4.764 0 8.824-1.5026 12.18-4.512 2.201-2.004 3.303-4.7906 3.303-8.36 0-3.408-1.227-6.2453-3.682-8.5106-2.454-2.2654-6.386-3.3987-11.801-3.3987h-13.045zm-16.35-16.06h22.358c12.018 0 20.328 1.004 24.928 3.008 4.601 2.0053 8.184 5.3133 10.746 9.924 2.563 4.612 3.844 9.904 3.844 15.879 0 5.496-1.157 10.036-3.465 13.624-2.311 3.5906-6.316 6.668-12.019 9.2333l14.896 40.36h-16.14l-13.886-36.992h-14.912v36.992h-16.35v-92.028z" fill="#9C9E9F"/><path d="m391.09 0.9859h16.349l28.9 57v-57h16.039v92.028h-16.039l-28.9-57.028v57.028h-16.061l-0.288-92.028z" fill="#9C9E9F"/><path d="m524.38 92.996h-16.309l-5.171-23.33-2.992-13.705-6.528-29.992-6.565 29.992h13.093l2.992 13.705h-19.097l-5.099 23.33h-16.325l22.876-91.993 16.291-2e-5 22.834 91.993z" fill="#9C9D9F"/></g><defs><clipPath id="a"><rect transform="translate(115.34 .98584)" width="409.04" height="92.028" fill="#fff"/></clipPath></defs></svg>
