<?xml version="1.0" encoding="UTF-8"?>
<svg version="1.1" viewBox="0 0 795 500"
    xmlns="http://www.w3.org/2000/svg">
    <rect x="570" y="278" width="223" height="221" fill="#fff" stroke="#e1001a" stroke-dashoffset="1.1" stroke-linecap="round" stroke-miterlimit="5" stroke-width="1.999" style="paint-order:fill markers stroke"/>
    <rect x="681" y="278" width="112" height="221" fill="#e1001a" style="paint-order:fill markers stroke"/>
    <g fill="#e1001a">
        <path d="m73.05 315h30.95c24.916 0 38.597 9.9159 38.597 29.675 0 22.318-22.27 31.324-37.597 31.324h-31.95zm-40.05-37.999v223h40.05v-89.999h36.262l33.827 89.999h38.862l-36.473-98.373c10.509-4.6802 19.538-10.694 23.667-15.062 9.4714-9.54 13.807-22.466 13.807-38.564 0-20.335-4.1459-37.633-16.86-51.322-4.6004-4.77-10.012-8.6456-15.425-11.328-11.907-5.3662-23.88-8.3475-62.715-8.3475z" aria-label="R"/>
        <path d="m208 277v223.01h134v-38.001h-95.005v-65.001h58v-32h-58v-50.001h94.996v-38.001z" aria-label="E"/>
        <path d="m405.23 314h19.77c22.603 0 60 13.235 60 72.999 0 26.806-7.1399 45.234-19.29 59.265-8.37 9.5529-19.98 14.735-32.94 14.735h-27.54zm-40.23-37v223h66c23.423 0 50.36-8.2544 67.332-27.019 17.55-19.106 28.668-52.352 28.668-86.981 0-64.482-35.592-109-88.56-109z" aria-label="D"/>
    </g>
    <g fill="#9b9c9e">
        <path d="m3.6415e-6 -1.5394e-4 47.703 223.01h30.724l36.923-169.94h0.53902l36.114 169.94h31.263l47.703-223.01h-38.001l-26.951 128.79h-0.53902l-27.49-128.79h-45.278l-27.22 127.6h-0.53902l-27.22-127.6z" aria-label="W"/>
        <path d="m245 3.4852e-4v223.01h39v-96.005h76v96.005h39v-223.01h-39v89.003h-76v-89.003z" aria-label="H"/>
        <path d="m437-5.674e-6v223h39v-223z" aria-label="I"/>
        <path d="m493.01 2.8957e-6v37.999h57v185h39v-185h56.001v-37.999z" aria-label="T"/>
        <path d="m660 1.1814e-4v223.01h135v-38.002h-96.005v-64.003h58v-33.001h-58v-49.002h96.005v-39.002z" aria-label="E"/>
    </g>
</svg>
